<svg width="14" height="13" viewBox="0 0 14 13" fill="none" xmlns="http://www.w3.org/2000/svg">
<path d="M12.9574 7.21506C13.0901 7.14855 13.2017 7.04643 13.2796 6.92012C13.3576 6.79381 13.3989 6.6483 13.3989 6.49986C13.3989 6.35142 13.3576 6.20591 13.2796 6.0796C13.2017 5.95329 13.0901 5.85117 12.9574 5.78466L1.75738 0.184659C1.61851 0.115174 1.46242 0.0876069 1.30815 0.10532C1.15388 0.123033 1.0081 0.185261 0.888589 0.284412C0.769081 0.383564 0.681013 0.515353 0.635128 0.663702C0.589242 0.812052 0.587523 0.970549 0.630179 1.11986L1.77338 5.11986C1.8212 5.28704 1.92218 5.43409 2.06105 5.53874C2.19991 5.64339 2.36909 5.69996 2.54298 5.69986L6.19978 5.69986C6.41195 5.69986 6.61544 5.78414 6.76546 5.93417C6.91549 6.0842 6.99978 6.28769 6.99978 6.49986C6.99978 6.71203 6.91549 6.91551 6.76546 7.06554C6.61544 7.21557 6.41195 7.29986 6.19978 7.29986L2.54298 7.29986C2.36909 7.29976 2.19991 7.35632 2.06105 7.46098C1.92218 7.56563 1.8212 7.71268 1.77338 7.87986L0.630979 11.8799C0.588238 12.0291 0.589854 12.1876 0.635632 12.336C0.681408 12.4843 0.769368 12.6161 0.888783 12.7154C1.0082 12.8146 1.1539 12.8769 1.30814 12.8948C1.46237 12.9126 1.61846 12.8852 1.75738 12.8159L12.9574 7.21586V7.21506Z" fill="#696969"/>
</svg>
