<svg width="20" height="21" viewBox="0 0 20 21" fill="none" xmlns="http://www.w3.org/2000/svg">
<path d="M19.0999 10.4999C19.0999 12.9134 18.1412 15.228 16.4346 16.9346C14.728 18.6412 12.4134 19.5999 9.9999 19.5999C7.58643 19.5999 5.27181 18.6412 3.56523 16.9346C1.85865 15.228 0.899902 12.9134 0.899902 10.4999C0.899902 8.08643 1.85865 5.77181 3.56523 4.06523C5.27181 2.35865 7.58643 1.3999 9.9999 1.3999C12.4134 1.3999 14.728 2.35865 16.4346 4.06523C18.1412 5.77181 19.0999 8.08643 19.0999 10.4999ZM11.202 16.502C11.5208 16.1832 11.6999 15.7508 11.6999 15.2999C11.6999 14.849 11.5208 14.4166 11.202 14.0978C10.8832 13.779 10.4508 13.5999 9.9999 13.5999C9.54903 13.5999 9.11663 13.779 8.79782 14.0978C8.47901 14.4166 8.2999 14.849 8.2999 15.2999C8.2999 15.7508 8.47901 16.1832 8.79782 16.502C9.11663 16.8208 9.54903 16.9999 9.9999 16.9999C10.4508 16.9999 10.8832 16.8208 11.202 16.502ZM9.9999 3.9999C9.54903 3.9999 9.11663 4.17901 8.79782 4.49782C8.47901 4.81663 8.2999 5.24903 8.2999 5.6999V10.4999C8.2999 10.9508 8.47901 11.3832 8.79782 11.702C9.11663 12.0208 9.54903 12.1999 9.9999 12.1999C10.4508 12.1999 10.8832 12.0208 11.202 11.702C11.5208 11.3832 11.6999 10.9508 11.6999 10.4999V5.6999C11.6999 5.24903 11.5208 4.81663 11.202 4.49782C10.8832 4.17901 10.4508 3.9999 9.9999 3.9999Z" fill="#E02424" stroke="#E02424"/>
</svg>
